<?xml version="1.0" encoding="UTF-8" standalone="no"?>
<!DOCTYPE svg PUBLIC "-//W3C//DTD SVG 1.1//EN"
 "http://www.w3.org/Graphics/SVG/1.1/DTD/svg11.dtd">
<!-- Generated by graphviz version 9.0.0 (20230911.1827)
 -->
<!-- Title: graphname Pages: 1 -->
<svg width="400pt" height="836pt"
 viewBox="0.00 0.00 400.37 836.00" xmlns="http://www.w3.org/2000/svg" xmlns:xlink="http://www.w3.org/1999/xlink">
<g id="graph0" class="graph" transform="scale(1 1) rotate(0) translate(4 832)">
<title>graphname</title>
<polygon fill="white" stroke="none" points="-4,4 -4,-832 396.37,-832 396.37,4 -4,4"/>
<!-- 都_1 -->
<g id="node1" class="node">
<title>都_1</title>
<ellipse fill="none" stroke="black" cx="251.45" cy="-738" rx="27" ry="18"/>
<text text-anchor="middle" x="251.45" y="-732.2" font-family="Times,serif" font-size="14.00">都</text>
</g>
<!-- で_2 -->
<g id="node5" class="node">
<title>で_2</title>
<ellipse fill="none" stroke="black" cx="215.45" cy="-666" rx="27" ry="18"/>
<text text-anchor="middle" x="215.45" y="-660.2" font-family="Times,serif" font-size="14.00">で</text>
</g>
<!-- 都_1&#45;&gt;で_2 -->
<g id="edge5" class="edge">
<title>都_1&#45;&gt;で_2</title>
<path fill="none" stroke="black" d="M243.1,-720.76C238.87,-712.55 233.64,-702.37 228.86,-693.09"/>
<polygon fill="black" stroke="black" points="232.13,-691.79 224.44,-684.49 225.9,-694.99 232.13,-691.79"/>
</g>
<!-- 京_0 -->
<g id="node2" class="node">
<title>京_0</title>
<ellipse fill="none" stroke="black" cx="257.45" cy="-810" rx="27" ry="18"/>
<text text-anchor="middle" x="257.45" y="-804.2" font-family="Times,serif" font-size="14.00">京</text>
</g>
<!-- 京_0&#45;&gt;都_1 -->
<g id="edge1" class="edge">
<title>京_0&#45;&gt;都_1</title>
<path fill="none" stroke="black" d="M255.96,-791.7C255.34,-784.41 254.59,-775.73 253.89,-767.54"/>
<polygon fill="black" stroke="black" points="257.38,-767.28 253.04,-757.61 250.41,-767.87 257.38,-767.28"/>
</g>
<!-- と_1 -->
<g id="node4" class="node">
<title>と_1</title>
<ellipse fill="none" stroke="black" cx="179.45" cy="-738" rx="27" ry="18"/>
<text text-anchor="middle" x="179.45" y="-732.2" font-family="Times,serif" font-size="14.00">と</text>
</g>
<!-- 京_0&#45;&gt;と_1 -->
<g id="edge3" class="edge">
<title>京_0&#45;&gt;と_1</title>
<path fill="none" stroke="black" d="M242.04,-795.17C231,-785.26 215.92,-771.73 203.33,-760.43"/>
<polygon fill="black" stroke="black" points="206,-758.13 196.22,-754.05 201.32,-763.34 206,-758.13"/>
</g>
<!-- きょう_0 -->
<g id="node3" class="node">
<title>きょう_0</title>
<ellipse fill="none" stroke="black" cx="174.45" cy="-810" rx="38.18" ry="18"/>
<text text-anchor="middle" x="174.45" y="-804.2" font-family="Times,serif" font-size="14.00">きょう</text>
</g>
<!-- きょう_0&#45;&gt;都_1 -->
<g id="edge2" class="edge">
<title>きょう_0&#45;&gt;都_1</title>
<path fill="none" stroke="black" d="M191.53,-793.46C202.13,-783.84 215.89,-771.32 227.55,-760.72"/>
<polygon fill="black" stroke="black" points="229.81,-763.4 234.85,-754.08 225.1,-758.22 229.81,-763.4"/>
</g>
<!-- きょう_0&#45;&gt;と_1 -->
<g id="edge4" class="edge">
<title>きょう_0&#45;&gt;と_1</title>
<path fill="none" stroke="black" d="M175.68,-791.7C176.2,-784.41 176.82,-775.73 177.41,-767.54"/>
<polygon fill="black" stroke="black" points="180.89,-767.84 178.12,-757.61 173.91,-767.34 180.89,-767.84"/>
</g>
<!-- と_1&#45;&gt;で_2 -->
<g id="edge6" class="edge">
<title>と_1&#45;&gt;で_2</title>
<path fill="none" stroke="black" d="M187.8,-720.76C192.02,-712.55 197.25,-702.37 202.03,-693.09"/>
<polygon fill="black" stroke="black" points="204.99,-694.99 206.45,-684.49 198.76,-691.79 204.99,-694.99"/>
</g>
<!-- たくさん_3 -->
<g id="node6" class="node">
<title>たくさん_3</title>
<ellipse fill="none" stroke="black" cx="47.45" cy="-522" rx="47.45" ry="18"/>
<text text-anchor="middle" x="47.45" y="-516.2" font-family="Times,serif" font-size="14.00">たくさん</text>
</g>
<!-- で_2&#45;&gt;たくさん_3 -->
<g id="edge7" class="edge">
<title>で_2&#45;&gt;たくさん_3</title>
<path fill="none" stroke="black" d="M191.39,-657.68C167.52,-649.5 130.92,-634.39 105.45,-612 85.9,-594.82 70.28,-569.54 60.2,-550.31"/>
<polygon fill="black" stroke="black" points="63.35,-548.78 55.73,-541.42 57.09,-551.93 63.35,-548.78"/>
</g>
<!-- 沢_たくさん_3_0 -->
<g id="node22" class="node">
<title>沢_たくさん_3_0</title>
<ellipse fill="none" stroke="black" cx="141.45" cy="-594" rx="27" ry="18"/>
<text text-anchor="middle" x="141.45" y="-588.2" font-family="Times,serif" font-size="14.00">沢</text>
</g>
<!-- で_2&#45;&gt;沢_たくさん_3_0 -->
<g id="edge31" class="edge">
<title>で_2&#45;&gt;沢_たくさん_3_0</title>
<path fill="none" stroke="black" d="M200.47,-650.83C190.21,-641.13 176.39,-628.06 164.7,-617"/>
<polygon fill="black" stroke="black" points="167.42,-614.75 157.75,-610.42 162.61,-619.84 167.42,-614.75"/>
</g>
<!-- たく_たくさん_3_0 -->
<g id="node23" class="node">
<title>たく_たくさん_3_0</title>
<ellipse fill="none" stroke="black" cx="215.45" cy="-594" rx="28.92" ry="18"/>
<text text-anchor="middle" x="215.45" y="-588.2" font-family="Times,serif" font-size="14.00">たく</text>
</g>
<!-- で_2&#45;&gt;たく_たくさん_3_0 -->
<g id="edge32" class="edge">
<title>で_2&#45;&gt;たく_たくさん_3_0</title>
<path fill="none" stroke="black" d="M215.45,-647.7C215.45,-640.41 215.45,-631.73 215.45,-623.54"/>
<polygon fill="black" stroke="black" points="218.95,-623.62 215.45,-613.62 211.95,-623.62 218.95,-623.62"/>
</g>
<!-- 写_たくさん写真を_3_0 -->
<g id="node24" class="node">
<title>写_たくさん写真を_3_0</title>
<ellipse fill="none" stroke="black" cx="289.45" cy="-594" rx="27" ry="18"/>
<text text-anchor="middle" x="289.45" y="-588.2" font-family="Times,serif" font-size="14.00">写</text>
</g>
<!-- で_2&#45;&gt;写_たくさん写真を_3_0 -->
<g id="edge39" class="edge">
<title>で_2&#45;&gt;写_たくさん写真を_3_0</title>
<path fill="none" stroke="black" d="M230.42,-650.83C240.68,-641.13 254.5,-628.06 266.19,-617"/>
<polygon fill="black" stroke="black" points="268.28,-619.84 273.14,-610.42 263.47,-614.75 268.28,-619.84"/>
</g>
<!-- しゃ_たくさん写真を_3_0 -->
<g id="node25" class="node">
<title>しゃ_たくさん写真を_3_0</title>
<ellipse fill="none" stroke="black" cx="363.45" cy="-594" rx="28.92" ry="18"/>
<text text-anchor="middle" x="363.45" y="-588.2" font-family="Times,serif" font-size="14.00">しゃ</text>
</g>
<!-- で_2&#45;&gt;しゃ_たくさん写真を_3_0 -->
<g id="edge40" class="edge">
<title>で_2&#45;&gt;しゃ_たくさん写真を_3_0</title>
<path fill="none" stroke="black" d="M236.97,-654.82C261.56,-643.19 302.1,-624.02 330.64,-610.52"/>
<polygon fill="black" stroke="black" points="332.02,-613.74 339.56,-606.3 329.02,-607.41 332.02,-613.74"/>
</g>
<!-- 写_4 -->
<g id="node7" class="node">
<title>写_4</title>
<ellipse fill="none" stroke="black" cx="178.45" cy="-450" rx="27" ry="18"/>
<text text-anchor="middle" x="178.45" y="-444.2" font-family="Times,serif" font-size="14.00">写</text>
</g>
<!-- たくさん_3&#45;&gt;写_4 -->
<g id="edge8" class="edge">
<title>たくさん_3&#45;&gt;写_4</title>
<path fill="none" stroke="black" d="M73.96,-506.83C95.38,-495.38 125.56,-479.26 147.98,-467.28"/>
<polygon fill="black" stroke="black" points="149.48,-470.45 156.65,-462.65 146.18,-464.27 149.48,-470.45"/>
</g>
<!-- しゃ_4 -->
<g id="node10" class="node">
<title>しゃ_4</title>
<ellipse fill="none" stroke="black" cx="104.45" cy="-450" rx="28.92" ry="18"/>
<text text-anchor="middle" x="104.45" y="-444.2" font-family="Times,serif" font-size="14.00">しゃ</text>
</g>
<!-- たくさん_3&#45;&gt;しゃ_4 -->
<g id="edge11" class="edge">
<title>たくさん_3&#45;&gt;しゃ_4</title>
<path fill="none" stroke="black" d="M60.95,-504.41C68.04,-495.71 76.85,-484.89 84.69,-475.26"/>
<polygon fill="black" stroke="black" points="87.26,-477.65 90.86,-467.68 81.83,-473.23 87.26,-477.65"/>
</g>
<!-- 真_5 -->
<g id="node11" class="node">
<title>真_5</title>
<ellipse fill="none" stroke="black" cx="178.45" cy="-378" rx="27" ry="18"/>
<text text-anchor="middle" x="178.45" y="-372.2" font-family="Times,serif" font-size="14.00">真</text>
</g>
<!-- 写_4&#45;&gt;真_5 -->
<g id="edge14" class="edge">
<title>写_4&#45;&gt;真_5</title>
<path fill="none" stroke="black" d="M178.45,-431.7C178.45,-424.41 178.45,-415.73 178.45,-407.54"/>
<polygon fill="black" stroke="black" points="181.95,-407.62 178.45,-397.62 174.95,-407.62 181.95,-407.62"/>
</g>
<!-- しん_5 -->
<g id="node12" class="node">
<title>しん_5</title>
<ellipse fill="none" stroke="black" cx="104.45" cy="-378" rx="28.92" ry="18"/>
<text text-anchor="middle" x="104.45" y="-372.2" font-family="Times,serif" font-size="14.00">しん</text>
</g>
<!-- 写_4&#45;&gt;しん_5 -->
<g id="edge16" class="edge">
<title>写_4&#45;&gt;しん_5</title>
<path fill="none" stroke="black" d="M163.47,-434.83C153.28,-425.19 139.57,-412.23 127.94,-401.22"/>
<polygon fill="black" stroke="black" points="130.68,-399 121.01,-394.67 125.87,-404.08 130.68,-399"/>
</g>
<!-- 山_たくさん_3_1 -->
<g id="node8" class="node">
<title>山_たくさん_3_1</title>
<ellipse fill="none" stroke="black" cx="215.45" cy="-522" rx="27" ry="18"/>
<text text-anchor="middle" x="215.45" y="-516.2" font-family="Times,serif" font-size="14.00">山</text>
</g>
<!-- 山_たくさん_3_1&#45;&gt;写_4 -->
<g id="edge9" class="edge">
<title>山_たくさん_3_1&#45;&gt;写_4</title>
<path fill="none" stroke="black" d="M206.86,-504.76C202.52,-496.55 197.14,-486.37 192.24,-477.09"/>
<polygon fill="black" stroke="black" points="195.46,-475.69 187.69,-468.49 189.27,-478.96 195.46,-475.69"/>
</g>
<!-- 山_たくさん_3_1&#45;&gt;しゃ_4 -->
<g id="edge12" class="edge">
<title>山_たくさん_3_1&#45;&gt;しゃ_4</title>
<path fill="none" stroke="black" d="M196.36,-508.97C179.18,-498.13 153.67,-482.04 133.87,-469.56"/>
<polygon fill="black" stroke="black" points="136.01,-466.77 125.68,-464.39 132.27,-472.69 136.01,-466.77"/>
</g>
<!-- さん_たくさん_3_1 -->
<g id="node9" class="node">
<title>さん_たくさん_3_1</title>
<ellipse fill="none" stroke="black" cx="141.45" cy="-522" rx="28.92" ry="18"/>
<text text-anchor="middle" x="141.45" y="-516.2" font-family="Times,serif" font-size="14.00">さん</text>
</g>
<!-- さん_たくさん_3_1&#45;&gt;写_4 -->
<g id="edge10" class="edge">
<title>さん_たくさん_3_1&#45;&gt;写_4</title>
<path fill="none" stroke="black" d="M150.21,-504.41C154.45,-496.39 159.65,-486.57 164.42,-477.54"/>
<polygon fill="black" stroke="black" points="167.45,-479.28 169.03,-468.81 161.27,-476.01 167.45,-479.28"/>
</g>
<!-- さん_たくさん_3_1&#45;&gt;しゃ_4 -->
<g id="edge13" class="edge">
<title>さん_たくさん_3_1&#45;&gt;しゃ_4</title>
<path fill="none" stroke="black" d="M132.68,-504.41C128.44,-496.39 123.25,-486.57 118.48,-477.54"/>
<polygon fill="black" stroke="black" points="121.63,-476.01 113.86,-468.81 115.44,-479.28 121.63,-476.01"/>
</g>
<!-- しゃ_4&#45;&gt;真_5 -->
<g id="edge15" class="edge">
<title>しゃ_4&#45;&gt;真_5</title>
<path fill="none" stroke="black" d="M119.78,-434.5C129.97,-424.86 143.54,-412.02 155.06,-401.12"/>
<polygon fill="black" stroke="black" points="157.43,-403.7 162.29,-394.29 152.62,-398.62 157.43,-403.7"/>
</g>
<!-- しゃ_4&#45;&gt;しん_5 -->
<g id="edge17" class="edge">
<title>しゃ_4&#45;&gt;しん_5</title>
<path fill="none" stroke="black" d="M104.45,-431.7C104.45,-424.41 104.45,-415.73 104.45,-407.54"/>
<polygon fill="black" stroke="black" points="107.95,-407.62 104.45,-397.62 100.95,-407.62 107.95,-407.62"/>
</g>
<!-- を_6 -->
<g id="node13" class="node">
<title>を_6</title>
<ellipse fill="none" stroke="black" cx="179.45" cy="-306" rx="27" ry="18"/>
<text text-anchor="middle" x="179.45" y="-300.2" font-family="Times,serif" font-size="14.00">を</text>
</g>
<!-- 真_5&#45;&gt;を_6 -->
<g id="edge18" class="edge">
<title>真_5&#45;&gt;を_6</title>
<path fill="none" stroke="black" d="M178.69,-359.7C178.8,-352.41 178.92,-343.73 179.04,-335.54"/>
<polygon fill="black" stroke="black" points="182.54,-335.67 179.18,-325.62 175.54,-335.57 182.54,-335.67"/>
</g>
<!-- しん_5&#45;&gt;を_6 -->
<g id="edge19" class="edge">
<title>しん_5&#45;&gt;を_6</title>
<path fill="none" stroke="black" d="M119.99,-362.5C130.41,-352.76 144.34,-339.77 156.09,-328.8"/>
<polygon fill="black" stroke="black" points="158.15,-331.66 163.08,-322.28 153.38,-326.54 158.15,-331.66"/>
</g>
<!-- 撮_7 -->
<g id="node14" class="node">
<title>撮_7</title>
<ellipse fill="none" stroke="black" cx="287.45" cy="-234" rx="27" ry="18"/>
<text text-anchor="middle" x="287.45" y="-228.2" font-family="Times,serif" font-size="14.00">撮</text>
</g>
<!-- を_6&#45;&gt;撮_7 -->
<g id="edge20" class="edge">
<title>を_6&#45;&gt;撮_7</title>
<path fill="none" stroke="black" d="M198.26,-292.81C215.04,-281.93 239.84,-265.86 259.03,-253.42"/>
<polygon fill="black" stroke="black" points="260.73,-256.49 267.22,-248.11 256.92,-250.61 260.73,-256.49"/>
</g>
<!-- と_7 -->
<g id="node17" class="node">
<title>と_7</title>
<ellipse fill="none" stroke="black" cx="215.45" cy="-234" rx="27" ry="18"/>
<text text-anchor="middle" x="215.45" y="-228.2" font-family="Times,serif" font-size="14.00">と</text>
</g>
<!-- を_6&#45;&gt;と_7 -->
<g id="edge23" class="edge">
<title>を_6&#45;&gt;と_7</title>
<path fill="none" stroke="black" d="M187.8,-288.76C192.02,-280.55 197.25,-270.37 202.03,-261.09"/>
<polygon fill="black" stroke="black" points="204.99,-262.99 206.45,-252.49 198.76,-259.79 204.99,-262.99"/>
</g>
<!-- り_8 -->
<g id="node18" class="node">
<title>り_8</title>
<ellipse fill="none" stroke="black" cx="215.45" cy="-162" rx="27" ry="18"/>
<text text-anchor="middle" x="215.45" y="-156.2" font-family="Times,serif" font-size="14.00">り</text>
</g>
<!-- 撮_7&#45;&gt;り_8 -->
<g id="edge26" class="edge">
<title>撮_7&#45;&gt;り_8</title>
<path fill="none" stroke="black" d="M272.53,-218.5C262.68,-208.92 249.58,-196.19 238.42,-185.34"/>
<polygon fill="black" stroke="black" points="241.04,-183 231.43,-178.54 236.16,-188.02 241.04,-183"/>
</g>
<!-- っ_りまし_11_0 -->
<g id="node21" class="node">
<title>っ_りまし_11_0</title>
<ellipse fill="none" stroke="black" cx="287.45" cy="-162" rx="27" ry="18"/>
<text text-anchor="middle" x="287.45" y="-156.2" font-family="Times,serif" font-size="14.00">っ</text>
</g>
<!-- 撮_7&#45;&gt;っ_りまし_11_0 -->
<g id="edge37" class="edge">
<title>撮_7&#45;&gt;っ_りまし_11_0</title>
<path fill="none" stroke="black" d="M287.45,-215.7C287.45,-208.41 287.45,-199.73 287.45,-191.54"/>
<polygon fill="black" stroke="black" points="290.95,-191.62 287.45,-181.62 283.95,-191.62 290.95,-191.62"/>
</g>
<!-- 山_たくさん写真を_3_4 -->
<g id="node15" class="node">
<title>山_たくさん写真を_3_4</title>
<ellipse fill="none" stroke="black" cx="251.45" cy="-306" rx="27" ry="18"/>
<text text-anchor="middle" x="251.45" y="-300.2" font-family="Times,serif" font-size="14.00">山</text>
</g>
<!-- 山_たくさん写真を_3_4&#45;&gt;撮_7 -->
<g id="edge21" class="edge">
<title>山_たくさん写真を_3_4&#45;&gt;撮_7</title>
<path fill="none" stroke="black" d="M259.8,-288.76C264.02,-280.55 269.25,-270.37 274.03,-261.09"/>
<polygon fill="black" stroke="black" points="276.99,-262.99 278.45,-252.49 270.76,-259.79 276.99,-262.99"/>
</g>
<!-- 山_たくさん写真を_3_4&#45;&gt;と_7 -->
<g id="edge24" class="edge">
<title>山_たくさん写真を_3_4&#45;&gt;と_7</title>
<path fill="none" stroke="black" d="M243.1,-288.76C238.87,-280.55 233.64,-270.37 228.86,-261.09"/>
<polygon fill="black" stroke="black" points="232.13,-259.79 224.44,-252.49 225.9,-262.99 232.13,-259.79"/>
</g>
<!-- さん_たくさん写真を_3_4 -->
<g id="node16" class="node">
<title>さん_たくさん写真を_3_4</title>
<ellipse fill="none" stroke="black" cx="325.45" cy="-306" rx="28.92" ry="18"/>
<text text-anchor="middle" x="325.45" y="-300.2" font-family="Times,serif" font-size="14.00">さん</text>
</g>
<!-- さん_たくさん写真を_3_4&#45;&gt;撮_7 -->
<g id="edge22" class="edge">
<title>さん_たくさん写真を_3_4&#45;&gt;撮_7</title>
<path fill="none" stroke="black" d="M316.44,-288.41C312.09,-280.39 306.75,-270.57 301.85,-261.54"/>
<polygon fill="black" stroke="black" points="304.96,-259.92 297.11,-252.8 298.8,-263.26 304.96,-259.92"/>
</g>
<!-- さん_たくさん写真を_3_4&#45;&gt;と_7 -->
<g id="edge25" class="edge">
<title>さん_たくさん写真を_3_4&#45;&gt;と_7</title>
<path fill="none" stroke="black" d="M305.78,-292.49C288.62,-281.57 263.52,-265.59 244.12,-253.25"/>
<polygon fill="black" stroke="black" points="246.17,-250.4 235.85,-247.98 242.41,-256.31 246.17,-250.4"/>
</g>
<!-- と_7&#45;&gt;り_8 -->
<g id="edge27" class="edge">
<title>と_7&#45;&gt;り_8</title>
<path fill="none" stroke="black" d="M215.45,-215.7C215.45,-208.41 215.45,-199.73 215.45,-191.54"/>
<polygon fill="black" stroke="black" points="218.95,-191.62 215.45,-181.62 211.95,-191.62 218.95,-191.62"/>
</g>
<!-- と_7&#45;&gt;っ_りまし_11_0 -->
<g id="edge38" class="edge">
<title>と_7&#45;&gt;っ_りまし_11_0</title>
<path fill="none" stroke="black" d="M230.36,-218.5C240.21,-208.92 253.31,-196.19 264.47,-185.34"/>
<polygon fill="black" stroke="black" points="266.73,-188.02 271.46,-178.54 261.85,-183 266.73,-188.02"/>
</g>
<!-- まし_9 -->
<g id="node19" class="node">
<title>まし_9</title>
<ellipse fill="none" stroke="black" cx="222.45" cy="-90" rx="28.92" ry="18"/>
<text text-anchor="middle" x="222.45" y="-84.2" font-family="Times,serif" font-size="14.00">まし</text>
</g>
<!-- り_8&#45;&gt;まし_9 -->
<g id="edge28" class="edge">
<title>り_8&#45;&gt;まし_9</title>
<path fill="none" stroke="black" d="M217.18,-143.7C217.91,-136.41 218.77,-127.73 219.59,-119.54"/>
<polygon fill="black" stroke="black" points="223.07,-119.91 220.58,-109.61 216.11,-119.21 223.07,-119.91"/>
</g>
<!-- た_10 -->
<g id="node20" class="node">
<title>た_10</title>
<ellipse fill="none" stroke="black" cx="250.45" cy="-18" rx="27" ry="18"/>
<text text-anchor="middle" x="250.45" y="-12.2" font-family="Times,serif" font-size="14.00">た</text>
</g>
<!-- まし_9&#45;&gt;た_10 -->
<g id="edge29" class="edge">
<title>まし_9&#45;&gt;た_10</title>
<path fill="none" stroke="black" d="M229.22,-72.05C232.32,-64.32 236.06,-54.96 239.54,-46.27"/>
<polygon fill="black" stroke="black" points="242.7,-47.78 243.17,-37.19 236.2,-45.18 242.7,-47.78"/>
</g>
<!-- っ_りまし_11_0&#45;&gt;た_10 -->
<g id="edge30" class="edge">
<title>っ_りまし_11_0&#45;&gt;た_10</title>
<path fill="none" stroke="black" d="M282.98,-143.87C276.73,-119.88 265.3,-75.99 257.78,-47.16"/>
<polygon fill="black" stroke="black" points="261.21,-46.45 255.31,-37.65 254.44,-48.21 261.21,-46.45"/>
</g>
<!-- 沢_たくさん_3_0&#45;&gt;山_たくさん_3_1 -->
<g id="edge33" class="edge">
<title>沢_たくさん_3_0&#45;&gt;山_たくさん_3_1</title>
<path fill="none" stroke="black" d="M156.42,-578.83C166.68,-569.13 180.5,-556.06 192.19,-545"/>
<polygon fill="black" stroke="black" points="194.28,-547.84 199.14,-538.42 189.47,-542.75 194.28,-547.84"/>
</g>
<!-- 沢_たくさん_3_0&#45;&gt;さん_たくさん_3_1 -->
<g id="edge35" class="edge">
<title>沢_たくさん_3_0&#45;&gt;さん_たくさん_3_1</title>
<path fill="none" stroke="black" d="M141.45,-575.7C141.45,-568.41 141.45,-559.73 141.45,-551.54"/>
<polygon fill="black" stroke="black" points="144.95,-551.62 141.45,-541.62 137.95,-551.62 144.95,-551.62"/>
</g>
<!-- たく_たくさん_3_0&#45;&gt;山_たくさん_3_1 -->
<g id="edge34" class="edge">
<title>たく_たくさん_3_0&#45;&gt;山_たくさん_3_1</title>
<path fill="none" stroke="black" d="M215.45,-575.7C215.45,-568.41 215.45,-559.73 215.45,-551.54"/>
<polygon fill="black" stroke="black" points="218.95,-551.62 215.45,-541.62 211.95,-551.62 218.95,-551.62"/>
</g>
<!-- たく_たくさん_3_0&#45;&gt;さん_たくさん_3_1 -->
<g id="edge36" class="edge">
<title>たく_たくさん_3_0&#45;&gt;さん_たくさん_3_1</title>
<path fill="none" stroke="black" d="M200.11,-578.5C189.99,-568.92 176.53,-556.19 165.06,-545.34"/>
<polygon fill="black" stroke="black" points="167.53,-542.85 157.86,-538.53 162.72,-547.94 167.53,-542.85"/>
</g>
<!-- 真_たくさん写真を_3_1 -->
<g id="node26" class="node">
<title>真_たくさん写真を_3_1</title>
<ellipse fill="none" stroke="black" cx="363.45" cy="-522" rx="27" ry="18"/>
<text text-anchor="middle" x="363.45" y="-516.2" font-family="Times,serif" font-size="14.00">真</text>
</g>
<!-- 写_たくさん写真を_3_0&#45;&gt;真_たくさん写真を_3_1 -->
<g id="edge41" class="edge">
<title>写_たくさん写真を_3_0&#45;&gt;真_たくさん写真を_3_1</title>
<path fill="none" stroke="black" d="M304.42,-578.83C314.68,-569.13 328.5,-556.06 340.19,-545"/>
<polygon fill="black" stroke="black" points="342.28,-547.84 347.14,-538.42 337.47,-542.75 342.28,-547.84"/>
</g>
<!-- しん_たくさん写真を_3_1 -->
<g id="node27" class="node">
<title>しん_たくさん写真を_3_1</title>
<ellipse fill="none" stroke="black" cx="289.45" cy="-522" rx="28.92" ry="18"/>
<text text-anchor="middle" x="289.45" y="-516.2" font-family="Times,serif" font-size="14.00">しん</text>
</g>
<!-- 写_たくさん写真を_3_0&#45;&gt;しん_たくさん写真を_3_1 -->
<g id="edge43" class="edge">
<title>写_たくさん写真を_3_0&#45;&gt;しん_たくさん写真を_3_1</title>
<path fill="none" stroke="black" d="M289.45,-575.7C289.45,-568.41 289.45,-559.73 289.45,-551.54"/>
<polygon fill="black" stroke="black" points="292.95,-551.62 289.45,-541.62 285.95,-551.62 292.95,-551.62"/>
</g>
<!-- しゃ_たくさん写真を_3_0&#45;&gt;真_たくさん写真を_3_1 -->
<g id="edge42" class="edge">
<title>しゃ_たくさん写真を_3_0&#45;&gt;真_たくさん写真を_3_1</title>
<path fill="none" stroke="black" d="M363.45,-575.7C363.45,-568.41 363.45,-559.73 363.45,-551.54"/>
<polygon fill="black" stroke="black" points="366.95,-551.62 363.45,-541.62 359.95,-551.62 366.95,-551.62"/>
</g>
<!-- しゃ_たくさん写真を_3_0&#45;&gt;しん_たくさん写真を_3_1 -->
<g id="edge44" class="edge">
<title>しゃ_たくさん写真を_3_0&#45;&gt;しん_たくさん写真を_3_1</title>
<path fill="none" stroke="black" d="M348.11,-578.5C337.99,-568.92 324.53,-556.19 313.06,-545.34"/>
<polygon fill="black" stroke="black" points="315.53,-542.85 305.86,-538.53 310.72,-547.94 315.53,-542.85"/>
</g>
<!-- を_たくさん写真を_3_2 -->
<g id="node28" class="node">
<title>を_たくさん写真を_3_2</title>
<ellipse fill="none" stroke="black" cx="289.45" cy="-450" rx="27" ry="18"/>
<text text-anchor="middle" x="289.45" y="-444.2" font-family="Times,serif" font-size="14.00">を</text>
</g>
<!-- 真_たくさん写真を_3_1&#45;&gt;を_たくさん写真を_3_2 -->
<g id="edge45" class="edge">
<title>真_たくさん写真を_3_1&#45;&gt;を_たくさん写真を_3_2</title>
<path fill="none" stroke="black" d="M348.47,-506.83C338.21,-497.13 324.39,-484.06 312.7,-473"/>
<polygon fill="black" stroke="black" points="315.42,-470.75 305.75,-466.42 310.61,-475.84 315.42,-470.75"/>
</g>
<!-- しん_たくさん写真を_3_1&#45;&gt;を_たくさん写真を_3_2 -->
<g id="edge46" class="edge">
<title>しん_たくさん写真を_3_1&#45;&gt;を_たくさん写真を_3_2</title>
<path fill="none" stroke="black" d="M289.45,-503.7C289.45,-496.41 289.45,-487.73 289.45,-479.54"/>
<polygon fill="black" stroke="black" points="292.95,-479.62 289.45,-469.62 285.95,-479.62 292.95,-479.62"/>
</g>
<!-- 沢_たくさん写真を_3_3 -->
<g id="node29" class="node">
<title>沢_たくさん写真を_3_3</title>
<ellipse fill="none" stroke="black" cx="326.45" cy="-378" rx="27" ry="18"/>
<text text-anchor="middle" x="326.45" y="-372.2" font-family="Times,serif" font-size="14.00">沢</text>
</g>
<!-- を_たくさん写真を_3_2&#45;&gt;沢_たくさん写真を_3_3 -->
<g id="edge47" class="edge">
<title>を_たくさん写真を_3_2&#45;&gt;沢_たくさん写真を_3_3</title>
<path fill="none" stroke="black" d="M298.03,-432.76C302.37,-424.55 307.75,-414.37 312.65,-405.09"/>
<polygon fill="black" stroke="black" points="315.62,-406.96 317.2,-396.49 309.44,-403.69 315.62,-406.96"/>
</g>
<!-- たく_たくさん写真を_3_3 -->
<g id="node30" class="node">
<title>たく_たくさん写真を_3_3</title>
<ellipse fill="none" stroke="black" cx="252.45" cy="-378" rx="28.92" ry="18"/>
<text text-anchor="middle" x="252.45" y="-372.2" font-family="Times,serif" font-size="14.00">たく</text>
</g>
<!-- を_たくさん写真を_3_2&#45;&gt;たく_たくさん写真を_3_3 -->
<g id="edge48" class="edge">
<title>を_たくさん写真を_3_2&#45;&gt;たく_たくさん写真を_3_3</title>
<path fill="none" stroke="black" d="M280.86,-432.76C276.63,-424.75 271.41,-414.88 266.6,-405.79"/>
<polygon fill="black" stroke="black" points="269.71,-404.18 261.95,-396.97 263.52,-407.45 269.71,-404.18"/>
</g>
<!-- 沢_たくさん写真を_3_3&#45;&gt;山_たくさん写真を_3_4 -->
<g id="edge49" class="edge">
<title>沢_たくさん写真を_3_3&#45;&gt;山_たくさん写真を_3_4</title>
<path fill="none" stroke="black" d="M311.27,-362.83C300.8,-353.06 286.68,-339.88 274.78,-328.78"/>
<polygon fill="black" stroke="black" points="277.41,-326.44 267.71,-322.18 272.63,-331.56 277.41,-326.44"/>
</g>
<!-- 沢_たくさん写真を_3_3&#45;&gt;さん_たくさん写真を_3_4 -->
<g id="edge51" class="edge">
<title>沢_たくさん写真を_3_3&#45;&gt;さん_たくさん写真を_3_4</title>
<path fill="none" stroke="black" d="M326.2,-359.7C326.09,-352.41 325.97,-343.73 325.85,-335.54"/>
<polygon fill="black" stroke="black" points="329.35,-335.57 325.71,-325.62 322.36,-335.67 329.35,-335.57"/>
</g>
<!-- たく_たくさん写真を_3_3&#45;&gt;山_たくさん写真を_3_4 -->
<g id="edge50" class="edge">
<title>たく_たくさん写真を_3_3&#45;&gt;山_たくさん写真を_3_4</title>
<path fill="none" stroke="black" d="M252.2,-359.7C252.09,-352.41 251.97,-343.73 251.85,-335.54"/>
<polygon fill="black" stroke="black" points="255.35,-335.57 251.71,-325.62 248.36,-335.67 255.35,-335.57"/>
</g>
<!-- たく_たくさん写真を_3_3&#45;&gt;さん_たくさん写真を_3_4 -->
<g id="edge52" class="edge">
<title>たく_たくさん写真を_3_3&#45;&gt;さん_たくさん写真を_3_4</title>
<path fill="none" stroke="black" d="M267.57,-362.5C277.49,-352.99 290.66,-340.36 301.93,-329.55"/>
<polygon fill="black" stroke="black" points="304.2,-332.22 309,-322.77 299.36,-327.17 304.2,-332.22"/>
</g>
</g>
</svg>
