<?xml version="1.0" encoding="UTF-8" standalone="no"?>
<!DOCTYPE svg PUBLIC "-//W3C//DTD SVG 1.1//EN"
 "http://www.w3.org/Graphics/SVG/1.1/DTD/svg11.dtd">
<!-- Generated by graphviz version 9.0.0 (20230911.1827)
 -->
<!-- Title: graphname Pages: 1 -->
<svg width="398pt" height="836pt"
 viewBox="0.00 0.00 398.00 836.00" xmlns="http://www.w3.org/2000/svg" xmlns:xlink="http://www.w3.org/1999/xlink">
<g id="graph0" class="graph" transform="scale(1 1) rotate(0) translate(4 832)">
<title>graphname</title>
<polygon fill="white" stroke="none" points="-4,4 -4,-832 394,-832 394,4 -4,4"/>
<!-- 都_1 -->
<g id="node1" class="node">
<title>都_1</title>
<ellipse fill="none" stroke="black" cx="231" cy="-738" rx="27" ry="18"/>
<text text-anchor="middle" x="231" y="-732.2" font-family="Times,serif" font-size="14.00">都</text>
</g>
<!-- で_2 -->
<g id="node5" class="node">
<title>で_2</title>
<ellipse fill="none" stroke="black" cx="195" cy="-666" rx="27" ry="18"/>
<text text-anchor="middle" x="195" y="-660.2" font-family="Times,serif" font-size="14.00">で</text>
</g>
<!-- 都_1&#45;&gt;で_2 -->
<g id="edge5" class="edge">
<title>都_1&#45;&gt;で_2</title>
<path fill="none" stroke="black" d="M222.65,-720.76C218.42,-712.55 213.19,-702.37 208.42,-693.09"/>
<polygon fill="black" stroke="black" points="211.68,-691.79 204,-684.49 205.46,-694.99 211.68,-691.79"/>
</g>
<!-- 京_0 -->
<g id="node2" class="node">
<title>京_0</title>
<ellipse fill="none" stroke="black" cx="237" cy="-810" rx="27" ry="18"/>
<text text-anchor="middle" x="237" y="-804.2" font-family="Times,serif" font-size="14.00">京</text>
</g>
<!-- 京_0&#45;&gt;都_1 -->
<g id="edge1" class="edge">
<title>京_0&#45;&gt;都_1</title>
<path fill="none" stroke="black" d="M235.52,-791.7C234.89,-784.41 234.15,-775.73 233.45,-767.54"/>
<polygon fill="black" stroke="black" points="236.94,-767.28 232.6,-757.61 229.96,-767.87 236.94,-767.28"/>
</g>
<!-- と_1 -->
<g id="node4" class="node">
<title>と_1</title>
<ellipse fill="none" stroke="black" cx="159" cy="-738" rx="27" ry="18"/>
<text text-anchor="middle" x="159" y="-732.2" font-family="Times,serif" font-size="14.00">と</text>
</g>
<!-- 京_0&#45;&gt;と_1 -->
<g id="edge3" class="edge">
<title>京_0&#45;&gt;と_1</title>
<path fill="none" stroke="black" d="M221.59,-795.17C210.55,-785.26 195.47,-771.73 182.88,-760.43"/>
<polygon fill="black" stroke="black" points="185.55,-758.13 175.77,-754.05 180.88,-763.34 185.55,-758.13"/>
</g>
<!-- きょう_0 -->
<g id="node3" class="node">
<title>きょう_0</title>
<ellipse fill="none" stroke="black" cx="154" cy="-810" rx="38.18" ry="18"/>
<text text-anchor="middle" x="154" y="-804.2" font-family="Times,serif" font-size="14.00">きょう</text>
</g>
<!-- きょう_0&#45;&gt;都_1 -->
<g id="edge2" class="edge">
<title>きょう_0&#45;&gt;都_1</title>
<path fill="none" stroke="black" d="M171.09,-793.46C181.68,-783.84 195.44,-771.32 207.11,-760.72"/>
<polygon fill="black" stroke="black" points="209.36,-763.4 214.41,-754.08 204.65,-758.22 209.36,-763.4"/>
</g>
<!-- きょう_0&#45;&gt;と_1 -->
<g id="edge4" class="edge">
<title>きょう_0&#45;&gt;と_1</title>
<path fill="none" stroke="black" d="M155.24,-791.7C155.76,-784.41 156.38,-775.73 156.96,-767.54"/>
<polygon fill="black" stroke="black" points="160.45,-767.84 157.67,-757.61 153.47,-767.34 160.45,-767.84"/>
</g>
<!-- と_1&#45;&gt;で_2 -->
<g id="edge6" class="edge">
<title>と_1&#45;&gt;で_2</title>
<path fill="none" stroke="black" d="M167.35,-720.76C171.58,-712.55 176.81,-702.37 181.58,-693.09"/>
<polygon fill="black" stroke="black" points="184.54,-694.99 186,-684.49 178.32,-691.79 184.54,-694.99"/>
</g>
<!-- たくさん_3 -->
<g id="node6" class="node">
<title>たくさん_3</title>
<ellipse fill="none" stroke="black" cx="195" cy="-522" rx="47.45" ry="18"/>
<text text-anchor="middle" x="195" y="-516.2" font-family="Times,serif" font-size="14.00">たくさん</text>
</g>
<!-- で_2&#45;&gt;たくさん_3 -->
<g id="edge7" class="edge">
<title>で_2&#45;&gt;たくさん_3</title>
<path fill="none" stroke="black" d="M195,-647.59C195,-623.61 195,-580.14 195,-551.42"/>
<polygon fill="black" stroke="black" points="198.5,-551.62 195,-541.62 191.5,-551.62 198.5,-551.62"/>
</g>
<!-- 沢_たくさん_3_0 -->
<g id="node20" class="node">
<title>沢_たくさん_3_0</title>
<ellipse fill="none" stroke="black" cx="269" cy="-594" rx="27" ry="18"/>
<text text-anchor="middle" x="269" y="-588.2" font-family="Times,serif" font-size="14.00">沢</text>
</g>
<!-- で_2&#45;&gt;沢_たくさん_3_0 -->
<g id="edge28" class="edge">
<title>で_2&#45;&gt;沢_たくさん_3_0</title>
<path fill="none" stroke="black" d="M209.98,-650.83C220.24,-641.13 234.06,-628.06 245.74,-617"/>
<polygon fill="black" stroke="black" points="247.83,-619.84 252.69,-610.42 243.02,-614.75 247.83,-619.84"/>
</g>
<!-- たく_たくさん_3_0 -->
<g id="node21" class="node">
<title>たく_たくさん_3_0</title>
<ellipse fill="none" stroke="black" cx="343" cy="-594" rx="28.92" ry="18"/>
<text text-anchor="middle" x="343" y="-588.2" font-family="Times,serif" font-size="14.00">たく</text>
</g>
<!-- で_2&#45;&gt;たく_たくさん_3_0 -->
<g id="edge29" class="edge">
<title>で_2&#45;&gt;たく_たくさん_3_0</title>
<path fill="none" stroke="black" d="M216.52,-654.82C241.12,-643.19 281.65,-624.02 310.19,-610.52"/>
<polygon fill="black" stroke="black" points="311.57,-613.74 319.11,-606.3 308.58,-607.41 311.57,-613.74"/>
</g>
<!-- 写_たくさん写真を_3_0 -->
<g id="node26" class="node">
<title>写_たくさん写真を_3_0</title>
<ellipse fill="none" stroke="black" cx="121" cy="-594" rx="27" ry="18"/>
<text text-anchor="middle" x="121" y="-588.2" font-family="Times,serif" font-size="14.00">写</text>
</g>
<!-- で_2&#45;&gt;写_たくさん写真を_3_0 -->
<g id="edge43" class="edge">
<title>で_2&#45;&gt;写_たくさん写真を_3_0</title>
<path fill="none" stroke="black" d="M180.02,-650.83C169.76,-641.13 155.94,-628.06 144.26,-617"/>
<polygon fill="black" stroke="black" points="146.98,-614.75 137.31,-610.42 142.17,-619.84 146.98,-614.75"/>
</g>
<!-- しゃ_たくさん写真を_3_0 -->
<g id="node27" class="node">
<title>しゃ_たくさん写真を_3_0</title>
<ellipse fill="none" stroke="black" cx="47" cy="-594" rx="28.92" ry="18"/>
<text text-anchor="middle" x="47" y="-588.2" font-family="Times,serif" font-size="14.00">しゃ</text>
</g>
<!-- で_2&#45;&gt;しゃ_たくさん写真を_3_0 -->
<g id="edge44" class="edge">
<title>で_2&#45;&gt;しゃ_たくさん写真を_3_0</title>
<path fill="none" stroke="black" d="M173.48,-654.82C148.88,-643.19 108.35,-624.02 79.81,-610.52"/>
<polygon fill="black" stroke="black" points="81.42,-607.41 70.89,-606.3 78.43,-613.74 81.42,-607.41"/>
</g>
<!-- 写_4 -->
<g id="node7" class="node">
<title>写_4</title>
<ellipse fill="none" stroke="black" cx="289" cy="-450" rx="27" ry="18"/>
<text text-anchor="middle" x="289" y="-444.2" font-family="Times,serif" font-size="14.00">写</text>
</g>
<!-- たくさん_3&#45;&gt;写_4 -->
<g id="edge8" class="edge">
<title>たくさん_3&#45;&gt;写_4</title>
<path fill="none" stroke="black" d="M215.86,-505.46C229.53,-495.29 247.52,-481.89 262.23,-470.93"/>
<polygon fill="black" stroke="black" points="264.21,-473.82 270.14,-465.04 260.03,-468.21 264.21,-473.82"/>
</g>
<!-- しゃ_4 -->
<g id="node10" class="node">
<title>しゃ_4</title>
<ellipse fill="none" stroke="black" cx="215" cy="-450" rx="28.92" ry="18"/>
<text text-anchor="middle" x="215" y="-444.2" font-family="Times,serif" font-size="14.00">しゃ</text>
</g>
<!-- たくさん_3&#45;&gt;しゃ_4 -->
<g id="edge11" class="edge">
<title>たくさん_3&#45;&gt;しゃ_4</title>
<path fill="none" stroke="black" d="M199.94,-503.7C202.08,-496.24 204.62,-487.32 207.01,-478.97"/>
<polygon fill="black" stroke="black" points="210.32,-480.14 209.7,-469.56 203.58,-478.21 210.32,-480.14"/>
</g>
<!-- 真_5 -->
<g id="node11" class="node">
<title>真_5</title>
<ellipse fill="none" stroke="black" cx="289" cy="-378" rx="27" ry="18"/>
<text text-anchor="middle" x="289" y="-372.2" font-family="Times,serif" font-size="14.00">真</text>
</g>
<!-- 写_4&#45;&gt;真_5 -->
<g id="edge14" class="edge">
<title>写_4&#45;&gt;真_5</title>
<path fill="none" stroke="black" d="M289,-431.7C289,-424.41 289,-415.73 289,-407.54"/>
<polygon fill="black" stroke="black" points="292.5,-407.62 289,-397.62 285.5,-407.62 292.5,-407.62"/>
</g>
<!-- しん_5 -->
<g id="node12" class="node">
<title>しん_5</title>
<ellipse fill="none" stroke="black" cx="215" cy="-378" rx="28.92" ry="18"/>
<text text-anchor="middle" x="215" y="-372.2" font-family="Times,serif" font-size="14.00">しん</text>
</g>
<!-- 写_4&#45;&gt;しん_5 -->
<g id="edge16" class="edge">
<title>写_4&#45;&gt;しん_5</title>
<path fill="none" stroke="black" d="M274.02,-434.83C263.83,-425.19 250.13,-412.23 238.49,-401.22"/>
<polygon fill="black" stroke="black" points="241.23,-399 231.56,-394.67 236.42,-404.08 241.23,-399"/>
</g>
<!-- 山_たくさん_3_1 -->
<g id="node8" class="node">
<title>山_たくさん_3_1</title>
<ellipse fill="none" stroke="black" cx="363" cy="-522" rx="27" ry="18"/>
<text text-anchor="middle" x="363" y="-516.2" font-family="Times,serif" font-size="14.00">山</text>
</g>
<!-- 山_たくさん_3_1&#45;&gt;写_4 -->
<g id="edge9" class="edge">
<title>山_たくさん_3_1&#45;&gt;写_4</title>
<path fill="none" stroke="black" d="M348.02,-506.83C337.76,-497.13 323.94,-484.06 312.26,-473"/>
<polygon fill="black" stroke="black" points="314.98,-470.75 305.31,-466.42 310.17,-475.84 314.98,-470.75"/>
</g>
<!-- 山_たくさん_3_1&#45;&gt;しゃ_4 -->
<g id="edge12" class="edge">
<title>山_たくさん_3_1&#45;&gt;しゃ_4</title>
<path fill="none" stroke="black" d="M341.48,-510.82C316.88,-499.19 276.35,-480.02 247.81,-466.52"/>
<polygon fill="black" stroke="black" points="249.42,-463.41 238.89,-462.3 246.43,-469.74 249.42,-463.41"/>
</g>
<!-- さん_たくさん_3_1 -->
<g id="node9" class="node">
<title>さん_たくさん_3_1</title>
<ellipse fill="none" stroke="black" cx="289" cy="-522" rx="28.92" ry="18"/>
<text text-anchor="middle" x="289" y="-516.2" font-family="Times,serif" font-size="14.00">さん</text>
</g>
<!-- さん_たくさん_3_1&#45;&gt;写_4 -->
<g id="edge10" class="edge">
<title>さん_たくさん_3_1&#45;&gt;写_4</title>
<path fill="none" stroke="black" d="M289,-503.7C289,-496.41 289,-487.73 289,-479.54"/>
<polygon fill="black" stroke="black" points="292.5,-479.62 289,-469.62 285.5,-479.62 292.5,-479.62"/>
</g>
<!-- さん_たくさん_3_1&#45;&gt;しゃ_4 -->
<g id="edge13" class="edge">
<title>さん_たくさん_3_1&#45;&gt;しゃ_4</title>
<path fill="none" stroke="black" d="M273.67,-506.5C263.55,-496.92 250.09,-484.19 238.61,-473.34"/>
<polygon fill="black" stroke="black" points="241.08,-470.85 231.41,-466.53 236.27,-475.94 241.08,-470.85"/>
</g>
<!-- しゃ_4&#45;&gt;真_5 -->
<g id="edge15" class="edge">
<title>しゃ_4&#45;&gt;真_5</title>
<path fill="none" stroke="black" d="M230.33,-434.5C240.52,-424.86 254.09,-412.02 265.62,-401.12"/>
<polygon fill="black" stroke="black" points="267.98,-403.7 272.84,-394.29 263.17,-398.62 267.98,-403.7"/>
</g>
<!-- しゃ_4&#45;&gt;しん_5 -->
<g id="edge17" class="edge">
<title>しゃ_4&#45;&gt;しん_5</title>
<path fill="none" stroke="black" d="M215,-431.7C215,-424.41 215,-415.73 215,-407.54"/>
<polygon fill="black" stroke="black" points="218.5,-407.62 215,-397.62 211.5,-407.62 218.5,-407.62"/>
</g>
<!-- を_6 -->
<g id="node13" class="node">
<title>を_6</title>
<ellipse fill="none" stroke="black" cx="215" cy="-306" rx="27" ry="18"/>
<text text-anchor="middle" x="215" y="-300.2" font-family="Times,serif" font-size="14.00">を</text>
</g>
<!-- 真_5&#45;&gt;を_6 -->
<g id="edge18" class="edge">
<title>真_5&#45;&gt;を_6</title>
<path fill="none" stroke="black" d="M274.02,-362.83C263.76,-353.13 249.94,-340.06 238.26,-329"/>
<polygon fill="black" stroke="black" points="240.98,-326.75 231.31,-322.42 236.17,-331.84 240.98,-326.75"/>
</g>
<!-- しん_5&#45;&gt;を_6 -->
<g id="edge19" class="edge">
<title>しん_5&#45;&gt;を_6</title>
<path fill="none" stroke="black" d="M215,-359.7C215,-352.41 215,-343.73 215,-335.54"/>
<polygon fill="black" stroke="black" points="218.5,-335.62 215,-325.62 211.5,-335.62 218.5,-335.62"/>
</g>
<!-- 撮_7 -->
<g id="node14" class="node">
<title>撮_7</title>
<ellipse fill="none" stroke="black" cx="133" cy="-234" rx="27" ry="18"/>
<text text-anchor="middle" x="133" y="-228.2" font-family="Times,serif" font-size="14.00">撮</text>
</g>
<!-- を_6&#45;&gt;撮_7 -->
<g id="edge20" class="edge">
<title>を_6&#45;&gt;撮_7</title>
<path fill="none" stroke="black" d="M198.8,-291.17C187.12,-281.2 171.14,-267.56 157.85,-256.21"/>
<polygon fill="black" stroke="black" points="160.2,-253.61 150.32,-249.78 155.65,-258.94 160.2,-253.61"/>
</g>
<!-- と_7 -->
<g id="node16" class="node">
<title>と_7</title>
<ellipse fill="none" stroke="black" cx="61" cy="-234" rx="27" ry="18"/>
<text text-anchor="middle" x="61" y="-228.2" font-family="Times,serif" font-size="14.00">と</text>
</g>
<!-- を_6&#45;&gt;と_7 -->
<g id="edge22" class="edge">
<title>を_6&#45;&gt;と_7</title>
<path fill="none" stroke="black" d="M193.34,-294.66C188.63,-292.44 183.65,-290.12 179,-288 142.78,-271.5 133.22,-268.5 97,-252 95.69,-251.4 94.36,-250.79 93.01,-250.17"/>
<polygon fill="black" stroke="black" points="94.57,-247.04 84.03,-245.98 91.61,-253.38 94.57,-247.04"/>
</g>
<!-- 撮_撮りました_10_0 -->
<g id="node22" class="node">
<title>撮_撮りました_10_0</title>
<ellipse fill="none" stroke="black" cx="277" cy="-234" rx="27" ry="18"/>
<text text-anchor="middle" x="277" y="-228.2" font-family="Times,serif" font-size="14.00">撮</text>
</g>
<!-- を_6&#45;&gt;撮_撮りました_10_0 -->
<g id="edge34" class="edge">
<title>を_6&#45;&gt;撮_撮りました_10_0</title>
<path fill="none" stroke="black" d="M223.58,-288.76C231.07,-279.08 241.91,-266.67 251.95,-256.21"/>
<polygon fill="black" stroke="black" points="254.14,-258.97 258.69,-249.41 249.17,-254.05 254.14,-258.97"/>
</g>
<!-- を_6&#45;&gt;撮_撮りました_10_0 -->
<g id="edge35" class="edge">
<title>を_6&#45;&gt;撮_撮りました_10_0</title>
<path fill="none" stroke="black" d="M232.07,-291.83C241.21,-282.95 252.21,-270.94 261.14,-260.25"/>
<polygon fill="black" stroke="black" points="263.85,-262.47 267.41,-252.49 258.41,-258.07 263.85,-262.47"/>
</g>
<!-- と_撮りました_10_0 -->
<g id="node23" class="node">
<title>と_撮りました_10_0</title>
<ellipse fill="none" stroke="black" cx="205" cy="-234" rx="27" ry="18"/>
<text text-anchor="middle" x="205" y="-228.2" font-family="Times,serif" font-size="14.00">と</text>
</g>
<!-- を_6&#45;&gt;と_撮りました_10_0 -->
<g id="edge37" class="edge">
<title>を_6&#45;&gt;と_撮りました_10_0</title>
<path fill="none" stroke="black" d="M206.79,-288.41C204.91,-280.94 203.35,-271.9 202.41,-263.4"/>
<polygon fill="black" stroke="black" points="205.91,-263.17 201.66,-253.47 198.93,-263.7 205.91,-263.17"/>
</g>
<!-- を_6&#45;&gt;と_撮りました_10_0 -->
<g id="edge38" class="edge">
<title>を_6&#45;&gt;と_撮りました_10_0</title>
<path fill="none" stroke="black" d="M218.44,-287.7C218.15,-280.21 217.1,-271.26 215.61,-262.88"/>
<polygon fill="black" stroke="black" points="219.03,-262.16 213.53,-253.1 212.18,-263.61 219.03,-262.16"/>
</g>
<!-- り_8 -->
<g id="node17" class="node">
<title>り_8</title>
<ellipse fill="none" stroke="black" cx="114" cy="-162" rx="27" ry="18"/>
<text text-anchor="middle" x="114" y="-156.2" font-family="Times,serif" font-size="14.00">り</text>
</g>
<!-- 撮_7&#45;&gt;り_8 -->
<g id="edge24" class="edge">
<title>撮_7&#45;&gt;り_8</title>
<path fill="none" stroke="black" d="M128.4,-216.05C126.35,-208.49 123.87,-199.37 121.56,-190.85"/>
<polygon fill="black" stroke="black" points="124.95,-189.98 118.95,-181.25 118.2,-191.82 124.95,-189.98"/>
</g>
<!-- たくさん_たくさん写真を_3_3 -->
<g id="node15" class="node">
<title>たくさん_たくさん写真を_3_3</title>
<ellipse fill="none" stroke="black" cx="123" cy="-306" rx="47.45" ry="18"/>
<text text-anchor="middle" x="123" y="-300.2" font-family="Times,serif" font-size="14.00">たくさん</text>
</g>
<!-- たくさん_たくさん写真を_3_3&#45;&gt;撮_7 -->
<g id="edge21" class="edge">
<title>たくさん_たくさん写真を_3_3&#45;&gt;撮_7</title>
<path fill="none" stroke="black" d="M125.47,-287.7C126.53,-280.32 127.78,-271.52 128.96,-263.25"/>
<polygon fill="black" stroke="black" points="132.39,-264 130.34,-253.6 125.46,-263.01 132.39,-264"/>
</g>
<!-- たくさん_たくさん写真を_3_3&#45;&gt;と_7 -->
<g id="edge23" class="edge">
<title>たくさん_たくさん写真を_3_3&#45;&gt;と_7</title>
<path fill="none" stroke="black" d="M108.31,-288.41C100.41,-279.5 90.54,-268.35 81.86,-258.56"/>
<polygon fill="black" stroke="black" points="84.57,-256.34 75.32,-251.17 79.33,-260.98 84.57,-256.34"/>
</g>
<!-- たくさん_たくさん写真を_3_3&#45;&gt;撮_撮りました_10_0 -->
<g id="edge36" class="edge">
<title>たくさん_たくさん写真を_3_3&#45;&gt;撮_撮りました_10_0</title>
<path fill="none" stroke="black" d="M153.14,-291.65C177.03,-281.03 211.22,-265.72 241,-252 242.31,-251.4 243.64,-250.78 244.98,-250.16"/>
<polygon fill="black" stroke="black" points="246.38,-253.37 253.96,-245.96 243.42,-247.03 246.38,-253.37"/>
</g>
<!-- たくさん_たくさん写真を_3_3&#45;&gt;と_撮りました_10_0 -->
<g id="edge39" class="edge">
<title>たくさん_たくさん写真を_3_3&#45;&gt;と_撮りました_10_0</title>
<path fill="none" stroke="black" d="M141.61,-289.12C153.09,-279.31 167.95,-266.62 180.4,-256"/>
<polygon fill="black" stroke="black" points="182.47,-258.83 187.81,-249.68 177.93,-253.51 182.47,-258.83"/>
</g>
<!-- と_7&#45;&gt;り_8 -->
<g id="edge25" class="edge">
<title>と_7&#45;&gt;り_8</title>
<path fill="none" stroke="black" d="M72.76,-217.46C79.42,-208.67 87.89,-197.48 95.43,-187.53"/>
<polygon fill="black" stroke="black" points="98.11,-189.78 101.36,-179.7 92.53,-185.56 98.11,-189.78"/>
</g>
<!-- まし_9 -->
<g id="node18" class="node">
<title>まし_9</title>
<ellipse fill="none" stroke="black" cx="114" cy="-90" rx="28.92" ry="18"/>
<text text-anchor="middle" x="114" y="-84.2" font-family="Times,serif" font-size="14.00">まし</text>
</g>
<!-- り_8&#45;&gt;まし_9 -->
<g id="edge26" class="edge">
<title>り_8&#45;&gt;まし_9</title>
<path fill="none" stroke="black" d="M114,-143.7C114,-136.41 114,-127.73 114,-119.54"/>
<polygon fill="black" stroke="black" points="117.5,-119.62 114,-109.62 110.5,-119.62 117.5,-119.62"/>
</g>
<!-- た_10 -->
<g id="node19" class="node">
<title>た_10</title>
<ellipse fill="none" stroke="black" cx="114" cy="-18" rx="27" ry="18"/>
<text text-anchor="middle" x="114" y="-12.2" font-family="Times,serif" font-size="14.00">た</text>
</g>
<!-- まし_9&#45;&gt;た_10 -->
<g id="edge27" class="edge">
<title>まし_9&#45;&gt;た_10</title>
<path fill="none" stroke="black" d="M114,-71.7C114,-64.41 114,-55.73 114,-47.54"/>
<polygon fill="black" stroke="black" points="117.5,-47.62 114,-37.62 110.5,-47.62 117.5,-47.62"/>
</g>
<!-- 沢_たくさん_3_0&#45;&gt;山_たくさん_3_1 -->
<g id="edge30" class="edge">
<title>沢_たくさん_3_0&#45;&gt;山_たくさん_3_1</title>
<path fill="none" stroke="black" d="M286.68,-579.83C300.73,-569.37 320.6,-554.58 336.54,-542.7"/>
<polygon fill="black" stroke="black" points="338.25,-545.79 344.18,-537.01 334.07,-540.18 338.25,-545.79"/>
</g>
<!-- 沢_たくさん_3_0&#45;&gt;さん_たくさん_3_1 -->
<g id="edge32" class="edge">
<title>沢_たくさん_3_0&#45;&gt;さん_たくさん_3_1</title>
<path fill="none" stroke="black" d="M273.84,-576.05C276,-568.49 278.61,-559.37 281.04,-550.85"/>
<polygon fill="black" stroke="black" points="284.41,-551.82 283.79,-541.24 277.67,-549.9 284.41,-551.82"/>
</g>
<!-- たく_たくさん_3_0&#45;&gt;山_たくさん_3_1 -->
<g id="edge31" class="edge">
<title>たく_たくさん_3_0&#45;&gt;山_たくさん_3_1</title>
<path fill="none" stroke="black" d="M347.84,-576.05C350,-568.49 352.61,-559.37 355.04,-550.85"/>
<polygon fill="black" stroke="black" points="358.41,-551.82 357.79,-541.24 351.67,-549.9 358.41,-551.82"/>
</g>
<!-- たく_たくさん_3_0&#45;&gt;さん_たくさん_3_1 -->
<g id="edge33" class="edge">
<title>たく_たくさん_3_0&#45;&gt;さん_たくさん_3_1</title>
<path fill="none" stroke="black" d="M331.02,-577.46C324.23,-568.67 315.6,-557.48 307.92,-547.53"/>
<polygon fill="black" stroke="black" points="310.75,-545.47 301.88,-539.69 305.21,-549.75 310.75,-545.47"/>
</g>
<!-- っ_撮りました_10_1 -->
<g id="node24" class="node">
<title>っ_撮りました_10_1</title>
<ellipse fill="none" stroke="black" cx="223" cy="-162" rx="27" ry="18"/>
<text text-anchor="middle" x="223" y="-156.2" font-family="Times,serif" font-size="14.00">っ</text>
</g>
<!-- 撮_撮りました_10_0&#45;&gt;っ_撮りました_10_1 -->
<g id="edge40" class="edge">
<title>撮_撮りました_10_0&#45;&gt;っ_撮りました_10_1</title>
<path fill="none" stroke="black" d="M265.02,-217.46C258.23,-208.67 249.6,-197.48 241.92,-187.53"/>
<polygon fill="black" stroke="black" points="244.75,-185.47 235.88,-179.69 239.21,-189.75 244.75,-185.47"/>
</g>
<!-- と_撮りました_10_0&#45;&gt;っ_撮りました_10_1 -->
<g id="edge41" class="edge">
<title>と_撮りました_10_0&#45;&gt;っ_撮りました_10_1</title>
<path fill="none" stroke="black" d="M209.36,-216.05C211.3,-208.49 213.65,-199.37 215.84,-190.85"/>
<polygon fill="black" stroke="black" points="219.21,-191.81 218.31,-181.25 212.43,-190.07 219.21,-191.81"/>
</g>
<!-- た_撮りました_10_2 -->
<g id="node25" class="node">
<title>た_撮りました_10_2</title>
<ellipse fill="none" stroke="black" cx="223" cy="-90" rx="27" ry="18"/>
<text text-anchor="middle" x="223" y="-84.2" font-family="Times,serif" font-size="14.00">た</text>
</g>
<!-- っ_撮りました_10_1&#45;&gt;た_撮りました_10_2 -->
<g id="edge42" class="edge">
<title>っ_撮りました_10_1&#45;&gt;た_撮りました_10_2</title>
<path fill="none" stroke="black" d="M223,-143.7C223,-136.41 223,-127.73 223,-119.54"/>
<polygon fill="black" stroke="black" points="226.5,-119.62 223,-109.62 219.5,-119.62 226.5,-119.62"/>
</g>
<!-- 真_たくさん写真を_3_1 -->
<g id="node28" class="node">
<title>真_たくさん写真を_3_1</title>
<ellipse fill="none" stroke="black" cx="27" cy="-522" rx="27" ry="18"/>
<text text-anchor="middle" x="27" y="-516.2" font-family="Times,serif" font-size="14.00">真</text>
</g>
<!-- 写_たくさん写真を_3_0&#45;&gt;真_たくさん写真を_3_1 -->
<g id="edge45" class="edge">
<title>写_たくさん写真を_3_0&#45;&gt;真_たくさん写真を_3_1</title>
<path fill="none" stroke="black" d="M103.32,-579.83C89.27,-569.37 69.4,-554.58 53.46,-542.7"/>
<polygon fill="black" stroke="black" points="55.93,-540.18 45.82,-537.01 51.75,-545.79 55.93,-540.18"/>
</g>
<!-- しん_たくさん写真を_3_1 -->
<g id="node29" class="node">
<title>しん_たくさん写真を_3_1</title>
<ellipse fill="none" stroke="black" cx="101" cy="-522" rx="28.92" ry="18"/>
<text text-anchor="middle" x="101" y="-516.2" font-family="Times,serif" font-size="14.00">しん</text>
</g>
<!-- 写_たくさん写真を_3_0&#45;&gt;しん_たくさん写真を_3_1 -->
<g id="edge47" class="edge">
<title>写_たくさん写真を_3_0&#45;&gt;しん_たくさん写真を_3_1</title>
<path fill="none" stroke="black" d="M116.16,-576.05C114,-568.49 111.39,-559.37 108.96,-550.85"/>
<polygon fill="black" stroke="black" points="112.33,-549.9 106.21,-541.24 105.59,-551.82 112.33,-549.9"/>
</g>
<!-- しゃ_たくさん写真を_3_0&#45;&gt;真_たくさん写真を_3_1 -->
<g id="edge46" class="edge">
<title>しゃ_たくさん写真を_3_0&#45;&gt;真_たくさん写真を_3_1</title>
<path fill="none" stroke="black" d="M42.16,-576.05C40,-568.49 37.39,-559.37 34.96,-550.85"/>
<polygon fill="black" stroke="black" points="38.33,-549.9 32.21,-541.24 31.59,-551.82 38.33,-549.9"/>
</g>
<!-- しゃ_たくさん写真を_3_0&#45;&gt;しん_たくさん写真を_3_1 -->
<g id="edge48" class="edge">
<title>しゃ_たくさん写真を_3_0&#45;&gt;しん_たくさん写真を_3_1</title>
<path fill="none" stroke="black" d="M58.98,-577.46C65.77,-568.67 74.4,-557.48 82.08,-547.53"/>
<polygon fill="black" stroke="black" points="84.79,-549.75 88.12,-539.69 79.25,-545.47 84.79,-549.75"/>
</g>
<!-- を_たくさん写真を_3_2 -->
<g id="node30" class="node">
<title>を_たくさん写真を_3_2</title>
<ellipse fill="none" stroke="black" cx="101" cy="-450" rx="27" ry="18"/>
<text text-anchor="middle" x="101" y="-444.2" font-family="Times,serif" font-size="14.00">を</text>
</g>
<!-- 真_たくさん写真を_3_1&#45;&gt;を_たくさん写真を_3_2 -->
<g id="edge49" class="edge">
<title>真_たくさん写真を_3_1&#45;&gt;を_たくさん写真を_3_2</title>
<path fill="none" stroke="black" d="M41.98,-506.83C52.24,-497.13 66.06,-484.06 77.74,-473"/>
<polygon fill="black" stroke="black" points="79.83,-475.84 84.69,-466.42 75.02,-470.75 79.83,-475.84"/>
</g>
<!-- しん_たくさん写真を_3_1&#45;&gt;を_たくさん写真を_3_2 -->
<g id="edge50" class="edge">
<title>しん_たくさん写真を_3_1&#45;&gt;を_たくさん写真を_3_2</title>
<path fill="none" stroke="black" d="M101,-503.7C101,-496.41 101,-487.73 101,-479.54"/>
<polygon fill="black" stroke="black" points="104.5,-479.62 101,-469.62 97.5,-479.62 104.5,-479.62"/>
</g>
<!-- を_たくさん写真を_3_2&#45;&gt;たくさん_たくさん写真を_3_3 -->
<g id="edge51" class="edge">
<title>を_たくさん写真を_3_2&#45;&gt;たくさん_たくさん写真を_3_3</title>
<path fill="none" stroke="black" d="M103.65,-431.87C107.35,-407.99 114.11,-364.38 118.58,-335.54"/>
<polygon fill="black" stroke="black" points="122.03,-336.1 120.11,-325.68 115.12,-335.03 122.03,-336.1"/>
</g>
</g>
</svg>
